<?xml version="1.0" standalone="no"?>
<!DOCTYPE svg PUBLIC "-//W3C//DTD SVG 20010904//EN"
 "http://www.w3.org/TR/2001/REC-SVG-20010904/DTD/svg10.dtd">
<svg version="1.0" xmlns="http://www.w3.org/2000/svg"
 width="480.000000pt" height="240.000000pt" viewBox="0 0 480.000000 240.000000"
 preserveAspectRatio="xMidYMid meet">

<g transform="translate(0.000000,240.000000) scale(0.100000,-0.100000)"
fill="#000000" stroke="none">
<path d="M4110 1906 l0 -56 78 0 c131 0 196 -30 207 -94 2 -17 9 -105 14 -196
7 -136 12 -173 29 -206 25 -49 84 -104 140 -130 23 -10 42 -22 42 -26 0 -3
-24 -19 -53 -36 -71 -40 -122 -99 -142 -164 -9 -30 -18 -107 -21 -178 -7 -164
-10 -184 -40 -220 -30 -34 -69 -47 -176 -56 l-78 -6 0 -55 0 -56 108 6 c170
10 229 36 264 114 16 37 22 80 29 211 10 189 26 241 92 297 44 38 113 65 164
65 l34 0 -3 72 -3 73 -45 6 c-101 15 -174 67 -210 151 -19 44 -24 81 -31 213
-4 88 -12 176 -18 196 -25 82 -101 118 -268 126 l-113 6 0 -57z"/>
<path d="M1168 1771 c-145 -47 -227 -146 -228 -277 0 -102 26 -153 105 -210
56 -39 124 -63 295 -104 233 -56 296 -101 288 -211 -8 -110 -92 -170 -250
-177 -181 -9 -293 55 -333 191 l-12 42 -67 3 c-65 3 -66 2 -66 -22 0 -14 10
-55 22 -92 53 -161 203 -248 433 -248 130 -1 210 22 290 82 158 120 165 352
14 461 -56 41 -148 74 -324 117 -162 39 -195 52 -231 91 -19 20 -24 37 -24 77
0 71 25 107 97 142 51 26 69 29 153 29 86 0 101 -3 155 -30 64 -32 89 -59 110
-121 l13 -39 67 -3 68 -3 -6 46 c-18 125 -114 221 -262 260 -82 21 -234 19
-307 -4z"/>
<path d="M2231 1774 c-266 -71 -457 -336 -437 -606 7 -95 45 -214 68 -212 10
1 14 -4 11 -12 -4 -10 0 -12 11 -8 9 3 16 10 16 15 0 5 12 9 26 9 14 0 23 4
20 9 -6 9 16 21 39 21 7 0 18 -21 24 -47 48 -187 197 -323 366 -331 218 -11
454 141 544 351 34 79 53 194 46 272 -9 89 -22 105 -85 92 -25 -5 -57 -9 -72
-9 -16 -1 -28 -4 -28 -7 -2 -42 -24 -151 -41 -195 -27 -72 -108 -162 -174
-193 -100 -46 -206 -24 -280 59 -54 59 -78 120 -83 212 l-5 78 -45 -6 c-25 -3
-62 -6 -83 -6 -28 0 -39 -4 -39 -15 0 -8 -4 -15 -9 -15 -10 0 10 74 32 116 20
38 93 107 136 129 45 22 126 30 178 16 54 -15 134 -87 164 -149 l24 -49 53 16
c28 8 52 21 52 27 0 7 18 15 40 19 23 4 40 12 40 20 0 7 5 15 11 17 17 6 -15
119 -53 190 -41 77 -131 160 -203 187 -67 25 -182 27 -264 5z"/>
<path d="M558 1343 c-3 -414 -4 -430 -25 -475 -26 -57 -63 -78 -135 -78 -93 0
-143 49 -155 151 l-6 49 -68 0 -69 0 0 -43 c0 -108 64 -213 156 -256 98 -46
258 -33 334 28 50 40 86 112 99 198 7 44 11 232 11 463 l0 390 -69 0 -70 0 -3
-427z"/>
<path d="M3000 1225 l0 -545 65 0 65 0 2 433 3 432 289 -432 288 -433 74 0 74
0 0 545 0 545 -65 0 -65 0 0 -425 c0 -264 -4 -425 -10 -425 -5 0 -47 57 -93
128 -46 70 -172 261 -281 425 l-197 297 -75 0 -74 0 0 -545z"/>
</g>
</svg>
