<?xml version="1.0" standalone="no"?>
<!DOCTYPE svg PUBLIC "-//W3C//DTD SVG 20010904//EN"
 "http://www.w3.org/TR/2001/REC-SVG-20010904/DTD/svg10.dtd">
<svg version="1.0" xmlns="http://www.w3.org/2000/svg"
 width="480.000000pt" height="182.000000pt" viewBox="0 0 480.000000 182.000000"
 preserveAspectRatio="xMidYMid meet">

<g transform="translate(0.000000,182.000000) scale(0.100000,-0.100000)"
fill="#000000" stroke="none">
<path d="M2319 1317 c-157 -44 -232 -224 -156 -375 25 -52 83 -106 104 -98 8
3 12 2 9 -3 -9 -13 50 -31 103 -31 100 0 166 40 219 129 23 39 27 57 27 126 0
63 -5 89 -22 120 -57 107 -174 162 -284 132z m119 -127 c39 -24 72 -75 72
-112 0 -62 -49 -132 -101 -143 -37 -8 -105 11 -122 35 -8 11 -16 18 -18 15 -5
-4 -7 7 -10 76 -3 58 23 105 71 130 44 24 67 24 108 -1z"/>
<path d="M1954 1307 c-116 -45 -146 -139 -71 -230 53 -66 60 -83 45 -114 -8
-17 -28 -33 -53 -42 -22 -8 -41 -15 -43 -17 -2 -1 7 -22 20 -48 18 -39 27 -46
50 -46 53 0 126 49 154 102 17 33 18 91 3 121 -7 12 -26 40 -44 63 -38 46 -42
58 -32 95 5 21 15 28 42 33 19 4 35 9 35 11 0 3 -7 23 -16 45 -18 44 -33 48
-90 27z"/>
<path d="M2753 1312 l-53 -3 0 -245 1 -244 66 0 66 0 -5 118 c-3 64 -2 126 1
136 8 20 1 27 133 -147 77 -101 85 -107 145 -107 l53 0 2 215 c1 118 2 227 2
243 1 27 0 27 -64 27 l-65 0 4 -132 c2 -87 -1 -133 -7 -133 -10 0 -48 48 -166
205 -27 36 -52 67 -55 68 -3 1 -30 1 -58 -1z"/>
<path d="M1628 1140 c5 -201 0 -246 -33 -284 -14 -16 -25 -32 -25 -35 1 -3 19
-24 40 -46 47 -47 61 -43 99 25 40 72 51 140 51 333 l0 177 -68 0 -68 0 4
-170z m-31 -315 c0 -8 -4 -15 -9 -15 -10 0 -11 14 -1 23 9 10 10 9 10 -8z"/>
<path d="M1843 602 c-12 -8 -15 -92 -3 -92 4 0 13 7 21 16 10 12 10 20 2 34
-8 12 -8 21 -1 28 12 12 -3 24 -19 14z"/>
<path d="M2224 585 c-15 -23 -15 -27 0 -50 18 -27 36 -31 67 -15 24 13 25 52
1 73 -26 24 -49 21 -68 -8z m56 -25 c0 -13 -7 -20 -20 -20 -19 0 -27 20 -13
33 13 14 33 6 33 -13z"/>
<path d="M2327 603 c-4 -3 -7 -26 -7 -50 0 -44 0 -44 33 -41 27 2 33 8 35 31
2 15 -1 27 -7 27 -6 0 -19 9 -29 20 -10 11 -22 17 -25 13z m43 -63 c0 -5 -4
-10 -10 -10 -5 0 -10 5 -10 10 0 6 5 10 10 10 6 0 10 -4 10 -10z"/>
<path d="M2668 603 c-9 -17 0 -87 11 -91 6 -2 11 6 11 17 0 26 12 27 28 1 23
-38 42 -25 42 30 0 38 -4 50 -15 50 -8 0 -15 -9 -15 -20 0 -11 -3 -20 -8 -20
-4 0 -13 9 -20 20 -12 20 -28 26 -34 13z"/>
<path d="M1540 566 c0 -19 -3 -41 -6 -50 -4 -10 -1 -16 9 -16 16 0 27 29 27
73 0 17 -5 27 -15 27 -10 0 -15 -10 -15 -34z"/>
<path d="M2000 555 c0 -33 4 -45 15 -45 16 0 19 28 9 68 -10 37 -24 25 -24
-23z"/>
<path d="M2130 594 c0 -5 -4 -15 -9 -22 -7 -11 -12 -11 -28 -1 -33 20 -53 5
-53 -41 0 -29 4 -40 15 -40 8 0 15 5 15 10 0 6 7 10 15 10 9 0 20 10 25 23 l9
22 7 -22 c7 -24 28 -31 39 -13 3 6 1 10 -5 10 -6 0 -8 10 -5 23 4 15 1 28 -9
36 -9 8 -16 10 -16 5z m-40 -48 c0 -3 -4 -8 -10 -11 -5 -3 -10 -1 -10 4 0 6 5
11 10 11 6 0 10 -2 10 -4z"/>
<path d="M2408 548 c-5 -64 -2 -70 21 -39 12 16 21 20 25 12 9 -13 46 -15 46
-2 0 5 -6 12 -12 14 -8 4 -7 6 3 6 9 1 22 -6 29 -14 14 -16 40 -20 40 -6 0 5
-6 11 -12 14 -10 3 -10 7 -1 17 15 16 33 4 33 -21 0 -12 7 -19 20 -19 22 0 27
16 8 23 -10 3 -10 7 -1 18 9 11 8 19 -3 34 -14 19 -16 19 -25 2 -6 -9 -14 -15
-19 -12 -5 3 -19 1 -30 -5 -16 -8 -25 -8 -35 0 -10 9 -19 9 -35 0 -18 -10 -22
-9 -27 9 -9 37 -21 22 -25 -31z"/>
<path d="M2850 585 c0 -11 -9 -14 -31 -13 -35 3 -56 -19 -46 -46 8 -21 53 -21
65 0 8 15 10 15 15 0 12 -31 36 -18 33 18 -2 18 -6 38 -10 45 -10 16 -26 14
-26 -4z m-30 -39 c0 -3 -4 -8 -10 -11 -5 -3 -10 -1 -10 4 0 6 5 11 10 11 6 0
10 -2 10 -4z"/>
<path d="M2990 586 c0 -10 -14 -16 -42 -18 -38 -3 -43 -6 -43 -28 0 -22 5 -25
37 -28 31 -3 37 0 41 20 l4 23 2 -22 c1 -15 7 -23 20 -23 14 0 18 6 16 28 -2
34 -14 62 -26 62 -5 0 -9 -6 -9 -14z m-40 -47 c0 -5 -4 -9 -10 -9 -5 0 -10 7
-10 16 0 8 5 12 10 9 6 -3 10 -10 10 -16z"/>
<path d="M3042 556 l-2 -44 47 2 c44 1 48 3 51 27 4 31 -19 44 -48 29 -20 -11
-36 2 -25 20 3 6 0 10 -8 10 -9 0 -14 -14 -15 -44z m78 -16 c0 -5 -4 -10 -10
-10 -5 0 -10 5 -10 10 0 6 5 10 10 10 6 0 10 -4 10 -10z"/>
<path d="M1592 571 c-8 -4 -12 -19 -10 -32 2 -19 10 -25 36 -27 30 -3 32 -1
32 26 0 37 -28 52 -58 33z m29 -34 c-13 -13 -26 -3 -16 12 3 6 11 8 17 5 6 -4
6 -10 -1 -17z"/>
<path d="M1755 570 c-4 -6 -15 -8 -26 -5 -13 4 -19 2 -19 -9 0 -9 -4 -16 -10
-16 -5 0 -10 7 -10 15 0 8 -7 15 -15 15 -18 0 -18 -2 -3 -35 13 -29 30 -32 49
-9 11 14 13 14 21 0 6 -10 23 -16 43 -16 31 0 35 3 35 25 0 18 -7 28 -26 35
-31 12 -31 12 -39 0z m29 -31 c-3 -5 -10 -7 -15 -3 -5 3 -7 10 -3 15 3 5 10 7
15 3 5 -3 7 -10 3 -15z"/>
<path d="M1895 566 c-11 -8 -16 -20 -12 -30 8 -19 35 -32 45 -21 4 4 1 10 -5
12 -16 6 -17 30 -1 35 8 3 9 6 1 11 -5 3 -18 0 -28 -7z"/>
<path d="M3183 572 c-18 -3 -23 -10 -23 -33 0 -16 5 -29 10 -29 6 0 10 9 10
20 0 11 5 20 10 20 6 0 10 -9 10 -20 0 -11 5 -20 10 -20 12 0 14 57 3 62 -5 2
-18 2 -30 0z"/>
<path d="M1950 540 c0 -33 14 -40 24 -12 3 9 9 23 12 30 4 7 -2 12 -15 12 -17
0 -21 -6 -21 -30z"/>
</g>
</svg>
